<?xml version="1.0" encoding="iso-8859-1"?>
<!-- Uploaded to: SVG Repo, www.svgrepo.com, Generator: SVG Repo Mixer Tools -->
<!DOCTYPE svg PUBLIC "-//W3C//DTD SVG 1.1//EN" "http://www.w3.org/Graphics/SVG/1.1/DTD/svg11.dtd">
<svg fill="#000000" height="800px" width="800px" version="1.1" id="Capa_1" xmlns="http://www.w3.org/2000/svg" xmlns:xlink="http://www.w3.org/1999/xlink" 
	 viewBox="0 0 460.159 460.159" xml:space="preserve">
<g id="XMLID_473_">
	<circle id="XMLID_474_" cx="367.62" cy="37.937" r="37.759"/>
	<path id="XMLID_884_" d="M459.928,218.503c0.057-0.016,0.113-0.035,0.17-0.052l-0.441-87.715
		c-0.12-23.721-19.516-43.02-43.237-43.02h-19.243c-2.393,6.253-19.566,52.464-22.133,59.171l5.34-25.155
		c0.375-1.766,0.103-3.609-0.767-5.191l-7.333-13.337l6.52-11.554c0.452-0.822,0.436-1.822-0.041-2.63
		c-0.478-0.808-1.346-1.303-2.285-1.303h-17.893c-0.938,0-1.807,0.495-2.285,1.303c-0.478,0.808-0.493,1.807-0.041,2.63
		l6.519,11.554l-7.36,13.387c-0.854,1.552-1.132,3.356-0.787,5.094l4.669,25.203c-1.423-3.65-21.349-59.156-21.349-59.156h-19.388
		c-23.108,0-42.1,18.366-43.075,41.267l-7.977,48.586l-28.111,35.004l0.438,0.401c12.232,11.193,14.36,29.292,5.895,42.872
		c4.127-0.773,8.013-2.945,10.849-6.476l42.338-52.718c1.965-2.447,3.265-5.36,3.773-8.457c0,0,6.137-43.8,9.193-57.399
		c0.382-1.698,1.979-2.838,3.709-2.645c1.73,0.193,3.036,1.656,3.036,3.396l0.071,306.492c0,12.109,9.816,21.925,21.925,21.925
		c11.488,0,20.906-8.837,21.842-20.083c0.119-0.922,0.187-1.86,0.187-2.815V266.564c0.451-2.144,2.351-3.755,4.629-3.755
		c2.614,0,4.733,2.119,4.733,4.733v170.514c0,12.109,9.816,21.925,21.925,21.925s21.925-9.816,21.925-21.925v-37.345
		c-0.015-0.008-0.03-0.018-0.046-0.026V279.32c0.016-0.008,0.03-0.018,0.046-0.026c0-7.338-0.018-11.497-0.046-14.968v-1.995
		c0-0.38-0.01-0.757-0.029-1.131c-0.113-11.021-0.315-23.047-0.323-130.204c0-2.097,1.689-3.803,3.786-3.824
		c1.814-0.018,3.344,1.233,3.751,2.929c0.026,0.235,0.042,0.472,0.043,0.714l0.672,133.849c0.05,10.031,8.197,18.128,18.217,18.128
		c0.03,0,0.063,0,0.094,0c10.062-0.05,18.178-8.248,18.127-18.31L459.928,218.503z"/>
	<circle id="XMLID_885_" cx="96.721" cy="37.937" r="37.759"/>
	<path id="XMLID_886_" d="M188.873,187.573c-0.113-22.532-0.029-5.826-0.286-56.941c-0.118-23.655-19.459-42.899-43.114-42.899
		c-10.124,0-87.65,0-97.81,0c-23.654,0-42.995,19.244-43.115,42.899L3.875,264.48c-0.032,6.439,3.308,12.16,8.421,15.433v15.15
		H7.529c-4.158,0-7.529,3.371-7.529,7.529v74.274c0,4.158,3.371,7.529,7.529,7.529h28.323c4.158,0,7.529-3.371,7.529-7.529v-74.274
		c0-4.158-3.371-7.529-7.529-7.529H31v-14.607c5.503-3.091,9.28-9.008,9.313-15.793l0.672-133.848l0-0.002
		c0.01-1.939,1.588-3.505,3.528-3.499c1.939,0.005,3.508,1.579,3.508,3.519l0.008,151.779c6.729,4.116,11.229,11.532,11.229,19.981
		v74.274c0,8.449-4.5,15.865-11.229,19.981v41.271c0,12.075,9.789,21.863,21.863,21.863s21.863-9.788,21.863-21.863
		c0-0.795,0.012-143.122-0.016-171.063c-0.001-1.253,0.495-2.454,1.381-3.341s2.087-1.384,3.339-1.384h0.037
		c1.251,0,2.45,0.497,3.334,1.382c0.884,0.885,1.38,2.085,1.379,3.336c-0.028,27.924-0.016,170.275-0.016,171.07
		c0,12.075,9.789,21.863,21.863,21.863s21.863-9.788,21.863-21.863l-0.388-307.308c-0.003-2.103,1.7-3.81,3.803-3.813
		c2.103-0.003,3.811,1.699,3.814,3.802c0,0.005,0,0.009,0,0.014c0.032,6.422,0.293,58.406,0.326,64.912
		c0.025,5.081,2.172,9.92,5.92,13.35l46.279,42.345c7.42,6.79,18.944,6.284,25.74-1.143c6.793-7.424,6.281-18.948-1.143-25.74
		L188.873,187.573z"/>
</g>
</svg>